<svg xmlns="http://www.w3.org/2000/svg" viewBox="0 0 256 256" fill="none">
  <defs>
    <linearGradient id="bg" x1="28" y1="22" x2="226" y2="238" gradientUnits="userSpaceOnUse">
      <stop stop-color="#0B1733" />
      <stop offset="0.52" stop-color="#164A8A" />
      <stop offset="1" stop-color="#2FA4FF" />
    </linearGradient>
    <radialGradient id="glow" cx="0" cy="0" r="1" gradientUnits="userSpaceOnUse" gradientTransform="translate(182 56) rotate(131.4) scale(136 164)">
      <stop stop-color="#BCE9FF" stop-opacity="0.72" />
      <stop offset="0.4" stop-color="#8ED8FF" stop-opacity="0.18" />
      <stop offset="1" stop-color="#8ED8FF" stop-opacity="0" />
    </radialGradient>
    <linearGradient id="leftLeg" x1="78" y1="184" x2="128" y2="66" gradientUnits="userSpaceOnUse">
      <stop stop-color="#6FF2D4" />
      <stop offset="1" stop-color="#9CF7E4" />
    </linearGradient>
    <linearGradient id="rightLeg" x1="132" y1="171" x2="198" y2="62" gradientUnits="userSpaceOnUse">
      <stop stop-color="#FFD36B" />
      <stop offset="1" stop-color="#FFE29A" />
    </linearGradient>
    <linearGradient id="bridge" x1="103" y1="131" x2="156" y2="131" gradientUnits="userSpaceOnUse">
      <stop stop-color="#C7FFF4" />
      <stop offset="1" stop-color="#FFF3C7" />
    </linearGradient>
  </defs>

  <rect width="256" height="256" rx="58" fill="url(#bg)" />
  <rect width="256" height="256" rx="58" fill="url(#glow)" />
  <circle cx="128" cy="118" r="74" fill="#FFFFFF" fill-opacity="0.055" />
  <circle cx="128" cy="118" r="73" stroke="#BFE9FF" stroke-opacity="0.22" stroke-width="2" />

  <path
    d="M72 190L115 83C118 75 126 71 132 75C135 77 137 80 138 84L148 112L136 112L129 95L91 190H72Z"
    fill="url(#leftLeg)"
  />
  <path
    d="M102 125C102 119 107 114 113 114H149C155 114 160 119 160 125C160 131 155 136 149 136H113C107 136 102 131 102 125Z"
    fill="url(#bridge)"
  />
  <path
    d="M130 86C128 79 132 72 139 70C145 68 151 71 154 77L178 130L193 115C197 111 204 111 208 115C212 119 212 126 208 130L176 162C173 165 169 166 165 165C161 165 157 162 155 158L130 86Z"
    fill="url(#rightLeg)"
  />

  <path
    d="M175 70H200C204 70 207 73 207 77V102"
    stroke="#FFF2B6"
    stroke-width="9"
    stroke-linecap="round"
    stroke-linejoin="round"
  />

  <circle cx="74" cy="64" r="5" fill="#FFF1B0" fill-opacity="0.92" />
  <circle cx="187" cy="185" r="4" fill="#BFF6FF" fill-opacity="0.88" />
  <circle cx="56" cy="172" r="3" fill="#8EEAD7" fill-opacity="0.9" />
</svg>
