<svg xmlns="http://www.w3.org/2000/svg" viewBox="0 0 256 256" fill="none">
  <defs>
    <linearGradient id="bg" x1="36" y1="28" x2="220" y2="228" gradientUnits="userSpaceOnUse">
      <stop stop-color="#143E73" />
      <stop offset="0.5" stop-color="#1E6AB0" />
      <stop offset="1" stop-color="#69B7EC" />
    </linearGradient>
    <radialGradient id="glow" cx="0" cy="0" r="1" gradientUnits="userSpaceOnUse" gradientTransform="translate(184 52) rotate(135) scale(130)">
      <stop stop-color="#DDF7FF" stop-opacity="0.95" />
      <stop offset="0.38" stop-color="#A9E7FF" stop-opacity="0.36" />
      <stop offset="1" stop-color="#A9E7FF" stop-opacity="0" />
    </radialGradient>
    <linearGradient id="mark" x1="82" y1="182" x2="183" y2="64" gradientUnits="userSpaceOnUse">
      <stop stop-color="#77C4A5" />
      <stop offset="0.55" stop-color="#A6C99A" />
      <stop offset="1" stop-color="#FFD37A" />
    </linearGradient>
    <linearGradient id="glassStroke" x1="52" y1="48" x2="204" y2="212" gradientUnits="userSpaceOnUse">
      <stop stop-color="#D9F6FF" stop-opacity="0.95" />
      <stop offset="1" stop-color="#8BCFFF" stop-opacity="0.4" />
    </linearGradient>
  </defs>

  <rect width="256" height="256" rx="58" fill="url(#bg)" />
  <rect width="256" height="256" rx="58" fill="url(#glow)" />

  <rect x="34" y="28" width="188" height="200" rx="42" fill="#FFFFFF" fill-opacity="0.08" />
  <rect x="36" y="30" width="184" height="196" rx="40" stroke="url(#glassStroke)" stroke-opacity="0.95" stroke-width="3.5" />
  <path d="M58 54c26-16 61-18 112-16 20 1 34 4 48 13" stroke="#E4FAFF" stroke-opacity="0.38" stroke-linecap="round" stroke-width="4" />

  <g stroke="url(#mark)" stroke-linecap="round" stroke-linejoin="round" stroke-width="5.8">
    <path d="M128 183v-58" />
    <path d="M128 131c-8-17-18-28-35-38" />
    <path d="M128 127c8-17 18-28 36-38" />
    <path d="M128 150c-12-10-24-15-41-16" />
    <path d="M128 148c12-10 24-15 42-16" />
    <path d="M128 182c-6 6-14 10-26 12" />
    <path d="M128 182c6 6 14 10 26 12" />
    <path d="M112 188c-8 3-14 7-19 13" />
    <path d="M144 188c8 3 14 7 19 13" />
    <path d="M128 183v18" />

    <path d="M169 94l17-17" />
    <path d="M175 78h15" />
    <path d="M185 88v-15" />
    <path d="M163 100l23-5" />

    <path d="M110 74c0 9 0 14 4 20-11-6-18-12-24-20V58c6 8 13 13 20 16" />
    <path d="M146 74c0 9 0 14-4 20 11-6 18-12 24-20V58c-6 8-13 13-20 16" />

    <path d="M84 125c8-7 16-10 23-10-5 8-12 12-23 10Z" />
    <path d="M78 146c8-7 16-10 23-10-5 8-12 12-23 10Z" />
    <path d="M92 160c8-7 16-10 23-10-5 8-12 12-23 10Z" />
    <path d="M172 125c-8-7-16-10-23-10 5 8 12 12 23 10Z" />
    <path d="M178 146c-8-7-16-10-23-10 5 8 12 12 23 10Z" />
    <path d="M164 160c-8-7-16-10-23-10 5 8 12 12 23 10Z" />
  </g>

  <g fill="#FFE39B">
    <path d="M196 58l4 7 7 4-7 4-4 7-4-7-7-4 7-4 4-7Z" />
    <path d="M74 72l2.7 4.8 4.8 2.7-4.8 2.8-2.7 4.7-2.7-4.7-4.8-2.8 4.8-2.7 2.7-4.8Z" fill-opacity="0.85" />
    <path d="M188 120l2.6 4.5 4.5 2.6-4.5 2.6-2.6 4.5-2.6-4.5-4.5-2.6 4.5-2.6 2.6-4.5Z" fill-opacity="0.9" />
  </g>
</svg>
